<?xml version="1.0" standalone="no"?>
<!DOCTYPE svg PUBLIC "-//W3C//DTD SVG 20010904//EN"
 "http://www.w3.org/TR/2001/REC-SVG-20010904/DTD/svg10.dtd">
<svg version="1.0" xmlns="http://www.w3.org/2000/svg"
 width="512.000000pt" height="512.000000pt" viewBox="0 0 512.000000 512.000000"
 preserveAspectRatio="xMidYMid meet">

<g transform="translate(0.000000,512.000000) scale(0.100000,-0.100000)"
fill="#3b82f6" stroke="none">
<path d="M2345 4449 c-170 -26 -309 -91 -410 -193 -156 -158 -212 -349 -202
-690 12 -403 136 -820 337 -1125 59 -89 61 -97 55 -138 -9 -63 -31 -121 -60
-159 -36 -47 -115 -82 -422 -185 -398 -135 -587 -217 -762 -333 -184 -123
-309 -364 -356 -684 -11 -82 -21 -244 -16 -289 1 -10 419 -13 2056 -13 l2055
0 0 103 c0 204 -45 408 -125 572 -72 149 -138 226 -263 309 -171 114 -373 202
-769 337 -244 82 -340 124 -385 167 -35 33 -67 118 -75 197 -5 59 -4 62 40
130 264 410 399 1085 297 1486 -65 255 -236 425 -492 490 -65 17 -122 22 -263
24 -99 2 -207 0 -240 -6z"/>
</g>
</svg>
